{
  "accessors": [
    {
      "bufferView": 2,
      "componentType": 5126,
      "count": 1659,
      "max": [
        71.504707336425781,
        27.900257110595703,
        28.687093734741211
      ],
      "min": [
        -16.154964447021484,
        -33.585918426513672,
        -20.5484619140625
      ],
      "type": "VEC3"
    },
    {
      "bufferView": 2,
      "byteOffset": 19908,
      "componentType": 5126,
      "count": 1659,
      "max": [
        0.99992948770523071,
        0.99967801570892334,
        0.9996301531791687
      ],
      "min": [
        -0.99997353553771973,
        -1,
        -0.99995845556259155
      ],
      "type": "VEC3"
    },
    {
      "bufferView": 3,
      "componentType": 5126,
      "count": 1659,
      "max": [
        0.99993783235549927,
        0.99937224388122559,
        0.99987506866455078,
        1
      ],
      "min": [
        -0.99936473369598389,
        -0.99999433755874634,
        -0.99989157915115356,
        -1
      ],
      "type": "VEC4"
    },
    {
      "bufferView": 1,
      "componentType": 5126,
      "count": 1659,
      "max": [
        1.2552447319030762,
        1.3306243419647217
      ],
      "min": [
        0.0076084332540631294,
        0.0027387437876313925
      ],
      "type": "VEC2"
    },
    {
      "bufferView": 0,
      "componentType": 5125,
      "count": 5496,
      "max": [
        1658
      ],
      "min": [
        0
      ],
      "type": "SCALAR"
    }
  ],
  "asset": {
    "extras": {
      "author": "egelsky (https://sketchfab.com/egelsky)",
      "license": "CC-BY-SA-4.0 (http://creativecommons.org/licenses/by-sa/4.0/)",
      "source": "https://sketchfab.com/models/03523a05efdd4fafaca67ad118382900",
      "title": "Low-poly trees"
    },
    "generator": "Sketchfab-3.19.2",
    "version": "2.0"
  },
  "bufferViews": [
    {
      "buffer": 0,
      "byteLength": 21984,
      "byteOffset": 0,
      "name": "floatBufferViews",
      "target": 34963
    },
    {
      "buffer": 0,
      "byteLength": 13272,
      "byteOffset": 21984,
      "byteStride": 8,
      "name": "floatBufferViews",
      "target": 34962
    },
    {
      "buffer": 0,
      "byteLength": 39816,
      "byteOffset": 35256,
      "byteStride": 12,
      "name": "floatBufferViews",
      "target": 34962
    },
    {
      "buffer": 0,
      "byteLength": 26544,
      "byteOffset": 75072,
      "byteStride": 16,
      "name": "floatBufferViews",
      "target": 34962
    }
  ],
  "buffers": [
    {
      "byteLength": 101616,
      "uri": "scene.bin"
    }
  ],
  "images": [
    {
      "uri": "textures/07_-_Default_baseColor.jpg"
    },
    {
      "uri": "textures/07_-_Default_normal.png"
    }
  ],
  "materials": [
    {
      "doubleSided": true,
      "emissiveFactor": [
        0,
        0,
        0
      ],
      "name": "07_-_Default",
      "normalTexture": {
        "index": 1,
        "scale": 1,
        "texCoord": 0
      },
      "pbrMetallicRoughness": {
        "baseColorFactor": [
          1,
          1,
          1,
          1
        ],
        "baseColorTexture": {
          "index": 0,
          "texCoord": 0
        },
        "metallicFactor": 0,
        "roughnessFactor": 0.59999999999999998
      }
    }
  ],
  "meshes": [
    {
      "name": "tree_01_07 - Default_0",
      "primitives": [
        {
          "attributes": {
            "NORMAL": 1,
            "POSITION": 0,
            "TANGENT": 2,
            "TEXCOORD_0": 3
          },
          "indices": 4,
          "material": 0,
          "mode": 4
        }
      ]
    }
  ],
  "nodes": [
    {
      "children": [
        1
      ],
      "name": "RootNode (gltf orientation matrix)",
      "rotation": [
        -0.70710678118654746,
        -0,
        -0,
        0.70710678118654757
      ]
    },
    {
      "children": [
        2
      ],
      "name": "RootNode (model correction matrix)"
    },
    {
      "children": [
        3
      ],
      "matrix": [
        1,
        0,
        0,
        0,
        0,
        0,
        1,
        0,
        0,
        -1,
        0,
        0,
        0,
        0,
        0,
        1
      ],
      "name": "baf9ad83cfac449b9de8f9cba9886ecd.fbx"
    },
    {
      "children": [
        4
      ],
      "name": "RootNode"
    },
    {
      "children": [
        5
      ],
      "matrix": [
        1,
        0,
        0,
        0,
        0,
        0.999999999999999,
        4.3711388508782534e-08,
        0,
        0,
        -4.3711388508782534e-08,
        0.999999999999999,
        0,
        27.107864379882812,
        0,
        40.450248718261719,
        1
      ],
      "name": "tree_01"
    },
    {
      "children": [
        6
      ],
      "matrix": [
        1,
        0,
        -0,
        0,
        0,
        1,
        0,
        0,
        0,
        0,
        1,
        0,
        -23.149324417114258,
        32.886524200439453,
        -13.322074890136719,
        1
      ],
      "name": ""
    },
    {
      "mesh": 0,
      "name": "tree_01_07 - Default_0"
    }
  ],
  "samplers": [
    {
      "magFilter": 9729,
      "minFilter": 9987,
      "wrapS": 10497,
      "wrapT": 10497
    }
  ],
  "scene": 0,
  "scenes": [
    {
      "name": "OSG_Scene",
      "nodes": [
        0
      ]
    }
  ],
  "textures": [
    {
      "sampler": 0,
      "source": 0
    },
    {
      "sampler": 0,
      "source": 1
    }
  ]
}

